<svg width="16" height="16" viewBox="0 0 16 16" fill="none" xmlns="http://www.w3.org/2000/svg">
<g clip-path="url(#clip0_913701_460)">
<path d="M15.9961 15.9999V15.9993H16.0001V10.1313C16.0001 7.26059 15.3821 5.04926 12.0261 5.04926C10.4128 5.04926 9.33009 5.93459 8.88809 6.77392H8.84143V5.31726H5.65942V15.9993H8.97276V10.7099C8.97276 9.31726 9.23676 7.97059 10.9614 7.97059C12.6608 7.97059 12.6861 9.55992 12.6861 10.7993V15.9999H15.9961Z" fill="#F4F4FD"/>
<path d="M0.264038 5.31787H3.58137V15.9999H0.264038V5.31787Z" fill="#F4F4FD"/>
<path d="M1.92139 -9.15527e-05C0.860728 -9.15527e-05 6.10352e-05 0.860575 6.10352e-05 1.92124C6.10352e-05 2.98191 0.860728 3.86058 1.92139 3.86058C2.98206 3.86058 3.84273 2.98191 3.84273 1.92124C3.84206 0.860575 2.98139 -9.15527e-05 1.92139 -9.15527e-05V-9.15527e-05Z" fill="#F4F4FD"/>
</g>
<defs>
<clipPath id="clip0_913701_460">
<rect width="16" height="16" fill="white"/>
</clipPath>
</defs>
</svg>
